<svg xmlns="http://www.w3.org/2000/svg" width="860" height="220" viewBox="0 0 860 220">
<style>
      .bg { fill: #0D1117; }
      .border { stroke: #FF4500; }
      .title { fill: #ffffff; }
      .sub { fill: #8b6060; }
      .axis { fill: #8b6060; }
      @media (prefers-color-scheme: light) {
        .bg { fill: #ffffff; }
        .title { fill: #1f2328; }
        .sub { fill: #6e7781; }
        .axis { fill: #6e7781; }
      }
    </style>
<rect class="bg" width="860" height="220" rx="12"/>
<rect x="1" y="1" width="858" height="218" fill="none" class="border" stroke-width="1" stroke-opacity="0.25" rx="12"/>
<text x="24" y="30" class="title" font-family="'JetBrains Mono', monospace" font-size="14" font-weight="700">Total Views — Last 30d</text>
<path d="M 50.0 184.0 L 77.1 183.3 L 104.2 175.7 L 131.3 172.6 L 158.4 142.5 L 185.5 140.0 L 212.6 136.6 L 239.7 129.7 L 266.8 126.9 L 293.9 121.7 L 321.0 116.5 L 348.1 113.7 L 375.2 109.6 L 402.3 108.9 L 429.4 81.9 L 456.6 79.5 L 483.7 77.0 L 510.8 72.2 L 537.9 65.6 L 565.0 62.2 L 592.1 60.1 L 619.2 59.0 L 646.3 57.0 L 673.4 53.8 L 700.5 51.1 L 727.6 50.4 L 754.7 48.0 L 781.8 44.8 L 808.9 43.8 L 836.0 40.0 L 836.0 184.0 L 50.0 184.0 Z" fill="#FF4500" opacity="0.12"/>
<path d="M 50.0 184.0 L 77.1 183.3 L 104.2 175.7 L 131.3 172.6 L 158.4 142.5 L 185.5 140.0 L 212.6 136.6 L 239.7 129.7 L 266.8 126.9 L 293.9 121.7 L 321.0 116.5 L 348.1 113.7 L 375.2 109.6 L 402.3 108.9 L 429.4 81.9 L 456.6 79.5 L 483.7 77.0 L 510.8 72.2 L 537.9 65.6 L 565.0 62.2 L 592.1 60.1 L 619.2 59.0 L 646.3 57.0 L 673.4 53.8 L 700.5 51.1 L 727.6 50.4 L 754.7 48.0 L 781.8 44.8 L 808.9 43.8 L 836.0 40.0" fill="none" stroke="#FF4500" stroke-width="2"/>
<circle cx="836.0" cy="40.0" r="4" fill="#FF4500"/>
<text x="50" y="208" class="axis" font-family="'JetBrains Mono', monospace" font-size="10">2026-09-02</text>
<text x="836" y="208" text-anchor="end" class="axis" font-family="'JetBrains Mono', monospace" font-size="10">2026-10-06</text>
<text x="836" y="42" text-anchor="end" class="sub" font-family="'JetBrains Mono', monospace" font-size="11">5.8k</text>
</svg>