<svg xmlns="http://www.w3.org/2000/svg" width="860" height="220" viewBox="0 0 860 220">
<style>
      .bg { fill: #0D1117; }
      .border { stroke: #FF4500; }
      .title { fill: #ffffff; }
      .sub { fill: #8b6060; }
      .axis { fill: #8b6060; }
      @media (prefers-color-scheme: light) {
        .bg { fill: #ffffff; }
        .title { fill: #1f2328; }
        .sub { fill: #6e7781; }
        .axis { fill: #6e7781; }
      }
    </style>
<rect class="bg" width="860" height="220" rx="12"/>
<rect x="1" y="1" width="858" height="218" fill="none" class="border" stroke-width="1" stroke-opacity="0.25" rx="12"/>
<text x="24" y="30" class="title" font-family="'JetBrains Mono', monospace" font-size="14" font-weight="700">Total Views — Last 30d</text>
<path d="M 50.0 184.0 L 84.2 182.2 L 118.3 180.4 L 152.5 178.2 L 186.7 174.2 L 220.9 170.6 L 255.0 166.2 L 289.2 157.2 L 323.4 155.3 L 357.6 146.6 L 391.7 145.9 L 425.9 137.9 L 460.1 134.7 L 494.3 103.1 L 528.4 100.6 L 562.6 96.9 L 596.8 89.7 L 631.0 86.8 L 665.1 81.4 L 699.3 75.9 L 733.5 73.0 L 767.7 68.7 L 801.8 67.9 L 836.0 40.0 L 836.0 184.0 L 50.0 184.0 Z" fill="#FF4500" opacity="0.12"/>
<path d="M 50.0 184.0 L 84.2 182.2 L 118.3 180.4 L 152.5 178.2 L 186.7 174.2 L 220.9 170.6 L 255.0 166.2 L 289.2 157.2 L 323.4 155.3 L 357.6 146.6 L 391.7 145.9 L 425.9 137.9 L 460.1 134.7 L 494.3 103.1 L 528.4 100.6 L 562.6 96.9 L 596.8 89.7 L 631.0 86.8 L 665.1 81.4 L 699.3 75.9 L 733.5 73.0 L 767.7 68.7 L 801.8 67.9 L 836.0 40.0" fill="none" stroke="#FF4500" stroke-width="2"/>
<circle cx="836.0" cy="40.0" r="4" fill="#FF4500"/>
<text x="50" y="208" class="axis" font-family="'JetBrains Mono', monospace" font-size="10">2026-08-24</text>
<text x="836" y="208" text-anchor="end" class="axis" font-family="'JetBrains Mono', monospace" font-size="10">2026-09-21</text>
<text x="836" y="42" text-anchor="end" class="sub" font-family="'JetBrains Mono', monospace" font-size="11">5.7k</text>
</svg>