<svg xmlns="http://www.w3.org/2000/svg" width="860" height="220" viewBox="0 0 860 220">
<style>
      .bg { fill: #0D1117; }
      .border { stroke: #FF4500; }
      .title { fill: #ffffff; }
      .sub { fill: #8b6060; }
      .axis { fill: #8b6060; }
      @media (prefers-color-scheme: light) {
        .bg { fill: #ffffff; }
        .title { fill: #1f2328; }
        .sub { fill: #6e7781; }
        .axis { fill: #6e7781; }
      }
    </style>
<rect class="bg" width="860" height="220" rx="12"/>
<rect x="1" y="1" width="858" height="218" fill="none" class="border" stroke-width="1" stroke-opacity="0.25" rx="12"/>
<text x="24" y="30" class="title" font-family="'JetBrains Mono', monospace" font-size="14" font-weight="700">Total Views — Last 30d</text>
<path d="M 50.0 184.0 L 82.8 182.2 L 115.5 180.4 L 148.2 178.3 L 181.0 174.3 L 213.8 170.7 L 246.5 166.4 L 279.2 157.5 L 312.0 155.7 L 344.8 147.1 L 377.5 146.4 L 410.2 138.5 L 443.0 135.3 L 475.7 104.1 L 508.5 101.6 L 541.2 98.0 L 574.0 90.9 L 606.8 88.0 L 639.5 82.6 L 672.2 77.3 L 705.0 74.4 L 737.8 70.1 L 770.5 69.4 L 803.2 41.4 L 836.0 40.0 L 836.0 184.0 L 50.0 184.0 Z" fill="#FF4500" opacity="0.12"/>
<path d="M 50.0 184.0 L 82.8 182.2 L 115.5 180.4 L 148.2 178.3 L 181.0 174.3 L 213.8 170.7 L 246.5 166.4 L 279.2 157.5 L 312.0 155.7 L 344.8 147.1 L 377.5 146.4 L 410.2 138.5 L 443.0 135.3 L 475.7 104.1 L 508.5 101.6 L 541.2 98.0 L 574.0 90.9 L 606.8 88.0 L 639.5 82.6 L 672.2 77.3 L 705.0 74.4 L 737.8 70.1 L 770.5 69.4 L 803.2 41.4 L 836.0 40.0" fill="none" stroke="#FF4500" stroke-width="2"/>
<circle cx="836.0" cy="40.0" r="4" fill="#FF4500"/>
<text x="50" y="208" class="axis" font-family="'JetBrains Mono', monospace" font-size="10">2026-08-24</text>
<text x="836" y="208" text-anchor="end" class="axis" font-family="'JetBrains Mono', monospace" font-size="10">2026-09-22</text>
<text x="836" y="42" text-anchor="end" class="sub" font-family="'JetBrains Mono', monospace" font-size="11">5.7k</text>
</svg>