<svg xmlns="http://www.w3.org/2000/svg" width="860" height="220" viewBox="0 0 860 220">
<style>
      .bg { fill: #0D1117; }
      .border { stroke: #FF4500; }
      .title { fill: #ffffff; }
      .sub { fill: #8b6060; }
      .axis { fill: #8b6060; }
      @media (prefers-color-scheme: light) {
        .bg { fill: #ffffff; }
        .title { fill: #1f2328; }
        .sub { fill: #6e7781; }
        .axis { fill: #6e7781; }
      }
    </style>
<rect class="bg" width="860" height="220" rx="12"/>
<rect x="1" y="1" width="858" height="218" fill="none" class="border" stroke-width="1" stroke-opacity="0.25" rx="12"/>
<text x="24" y="30" class="title" font-family="'JetBrains Mono', monospace" font-size="14" font-weight="700">Total Views — Last 30d</text>
<path d="M 50.0 184.0 L 87.4 181.7 L 124.9 179.5 L 162.3 176.8 L 199.7 171.8 L 237.1 167.2 L 274.6 161.8 L 312.0 150.5 L 349.4 148.2 L 386.9 137.4 L 424.3 136.5 L 461.7 126.5 L 499.1 122.4 L 536.6 83.0 L 574.0 79.8 L 611.4 75.3 L 648.9 66.3 L 686.3 62.6 L 723.7 55.8 L 761.1 49.1 L 798.6 45.4 L 836.0 40.0 L 836.0 184.0 L 50.0 184.0 Z" fill="#FF4500" opacity="0.12"/>
<path d="M 50.0 184.0 L 87.4 181.7 L 124.9 179.5 L 162.3 176.8 L 199.7 171.8 L 237.1 167.2 L 274.6 161.8 L 312.0 150.5 L 349.4 148.2 L 386.9 137.4 L 424.3 136.5 L 461.7 126.5 L 499.1 122.4 L 536.6 83.0 L 574.0 79.8 L 611.4 75.3 L 648.9 66.3 L 686.3 62.6 L 723.7 55.8 L 761.1 49.1 L 798.6 45.4 L 836.0 40.0" fill="none" stroke="#FF4500" stroke-width="2"/>
<circle cx="836.0" cy="40.0" r="4" fill="#FF4500"/>
<text x="50" y="208" class="axis" font-family="'JetBrains Mono', monospace" font-size="10">2026-08-24</text>
<text x="836" y="208" text-anchor="end" class="axis" font-family="'JetBrains Mono', monospace" font-size="10">2026-09-14</text>
<text x="836" y="42" text-anchor="end" class="sub" font-family="'JetBrains Mono', monospace" font-size="11">5.6k</text>
</svg>