<svg xmlns="http://www.w3.org/2000/svg" width="860" height="220" viewBox="0 0 860 220">
<style>
      .bg { fill: #0D1117; }
      .border { stroke: #FF4500; }
      .title { fill: #ffffff; }
      .sub { fill: #8b6060; }
      .axis { fill: #8b6060; }
      @media (prefers-color-scheme: light) {
        .bg { fill: #ffffff; }
        .title { fill: #1f2328; }
        .sub { fill: #6e7781; }
        .axis { fill: #6e7781; }
      }
    </style>
<rect class="bg" width="860" height="220" rx="12"/>
<rect x="1" y="1" width="858" height="218" fill="none" class="border" stroke-width="1" stroke-opacity="0.25" rx="12"/>
<text x="24" y="30" class="title" font-family="'JetBrains Mono', monospace" font-size="14" font-weight="700">Total Views — Last 30d</text>
<path d="M 50.0 184.0 L 102.4 180.9 L 154.8 177.9 L 207.2 174.2 L 259.6 167.5 L 312.0 161.3 L 364.4 154.0 L 416.8 138.7 L 469.2 135.6 L 521.6 120.9 L 574.0 119.7 L 626.4 106.2 L 678.8 100.7 L 731.2 47.4 L 783.6 43.1 L 836.0 40.0 L 836.0 184.0 L 50.0 184.0 Z" fill="#FF4500" opacity="0.12"/>
<path d="M 50.0 184.0 L 102.4 180.9 L 154.8 177.9 L 207.2 174.2 L 259.6 167.5 L 312.0 161.3 L 364.4 154.0 L 416.8 138.7 L 469.2 135.6 L 521.6 120.9 L 574.0 119.7 L 626.4 106.2 L 678.8 100.7 L 731.2 47.4 L 783.6 43.1 L 836.0 40.0" fill="none" stroke="#FF4500" stroke-width="2"/>
<circle cx="836.0" cy="40.0" r="4" fill="#FF4500"/>
<text x="50" y="208" class="axis" font-family="'JetBrains Mono', monospace" font-size="10">2026-08-24</text>
<text x="836" y="208" text-anchor="end" class="axis" font-family="'JetBrains Mono', monospace" font-size="10">2026-09-08</text>
<text x="836" y="42" text-anchor="end" class="sub" font-family="'JetBrains Mono', monospace" font-size="11">5.5k</text>
</svg>