<svg xmlns="http://www.w3.org/2000/svg" width="860" height="220" viewBox="0 0 860 220">
<style>
      .bg { fill: #0D1117; }
      .border { stroke: #FF4500; }
      .title { fill: #ffffff; }
      .sub { fill: #8b6060; }
      .axis { fill: #8b6060; }
      @media (prefers-color-scheme: light) {
        .bg { fill: #ffffff; }
        .title { fill: #1f2328; }
        .sub { fill: #6e7781; }
        .axis { fill: #6e7781; }
      }
    </style>
<rect class="bg" width="860" height="220" rx="12"/>
<rect x="1" y="1" width="858" height="218" fill="none" class="border" stroke-width="1" stroke-opacity="0.25" rx="12"/>
<text x="24" y="30" class="title" font-family="'JetBrains Mono', monospace" font-size="14" font-weight="700">Total Views — Last 30d</text>
<path d="M 50.0 48.2 L 78.1 48.1 L 106.1 48.0 L 134.2 47.8 L 162.3 47.5 L 190.4 47.3 L 218.4 47.0 L 246.5 46.3 L 274.6 46.2 L 302.6 45.6 L 330.7 45.5 L 358.8 45.0 L 386.9 44.7 L 414.9 42.5 L 443.0 42.3 L 471.1 42.1 L 499.1 41.5 L 527.2 41.3 L 555.3 41.0 L 583.4 40.6 L 611.4 40.4 L 639.5 40.1 L 667.6 40.0 L 695.6 184.0 L 723.7 184.0 L 751.8 184.0 L 779.9 184.0 L 807.9 184.0 L 836.0 184.0 L 836.0 184.0 L 50.0 184.0 Z" fill="#FF4500" opacity="0.12"/>
<path d="M 50.0 48.2 L 78.1 48.1 L 106.1 48.0 L 134.2 47.8 L 162.3 47.5 L 190.4 47.3 L 218.4 47.0 L 246.5 46.3 L 274.6 46.2 L 302.6 45.6 L 330.7 45.5 L 358.8 45.0 L 386.9 44.7 L 414.9 42.5 L 443.0 42.3 L 471.1 42.1 L 499.1 41.5 L 527.2 41.3 L 555.3 41.0 L 583.4 40.6 L 611.4 40.4 L 639.5 40.1 L 667.6 40.0 L 695.6 184.0 L 723.7 184.0 L 751.8 184.0 L 779.9 184.0 L 807.9 184.0 L 836.0 184.0" fill="none" stroke="#FF4500" stroke-width="2"/>
<circle cx="836.0" cy="184.0" r="4" fill="#FF4500"/>
<text x="50" y="208" class="axis" font-family="'JetBrains Mono', monospace" font-size="10">2026-08-24</text>
<text x="836" y="208" text-anchor="end" class="axis" font-family="'JetBrains Mono', monospace" font-size="10">2026-09-21</text>
<text x="836" y="42" text-anchor="end" class="sub" font-family="'JetBrains Mono', monospace" font-size="11">0</text>
</svg>